<?xml version="1.0" standalone="no"?><!DOCTYPE svg PUBLIC "-//W3C//DTD SVG 1.1//EN" "http://www.w3.org/Graphics/SVG/1.1/DTD/svg11.dtd"><svg t="1574225853386" class="icon" viewBox="0 0 1024 1024" version="1.1" xmlns="http://www.w3.org/2000/svg" p-id="1558" xmlns:xlink="http://www.w3.org/1999/xlink" width="200" height="200"><defs><style type="text/css"></style></defs><path d="M519.470164 514.350164m-419.672131 0a419.672131 419.672131 0 1 0 839.344262 0 419.672131 419.672131 0 1 0-839.344262 0Z" fill="#FF8000" p-id="1559"></path><path d="M989.502951 850.087869h-16.786885v-16.786885a16.786885 16.786885 0 1 0-33.573771 0v16.786885h-16.786885a16.786885 16.786885 0 1 0 0 33.57377h16.786885v16.786886a16.786885 16.786885 0 1 0 33.573771 0v-16.786886h16.786885a16.786885 16.786885 0 1 0 0-33.57377zM99.798033 900.448525h-16.786885v-16.786886a16.786885 16.786885 0 1 0-33.573771 0v16.786886h-16.786885a16.786885 16.786885 0 1 0 0 33.57377h16.786885v16.786885a16.786885 16.786885 0 1 0 33.573771 0v-16.786885h16.786885a16.786885 16.786885 0 1 0 0-33.57377zM871.994754 44.317377h-16.786885v-16.786885a16.786885 16.786885 0 1 0-33.573771 0v16.786885h-16.786885a16.786885 16.786885 0 1 0 0 33.573771h16.786885v16.786885a16.786885 16.786885 0 1 0 33.573771 0v-16.786885h16.786885a16.786885 16.786885 0 1 0 0-33.573771z" fill="#000000" p-id="1560"></path><path d="M133.371803 178.612459c-27.765508 0-50.360656-22.595148-50.360655-50.360656s22.595148-50.360656 50.360655-50.360655 50.360656 22.595148 50.360656 50.360655-22.595148 50.360656-50.360656 50.360656z m0-67.147541a16.786885 16.786885 0 1 0 0 33.573771 16.786885 16.786885 0 0 0 0-33.573771z" fill="#000000" p-id="1561"></path><path d="M603.40459 498.066885v-1.007213a49.857049 49.857049 0 0 1 49.857049-49.857049h118.011804v-50.864262a49.857049 49.857049 0 0 1 49.857049-49.85705h135.302295a49.857049 49.857049 0 0 1 49.857049 49.85705v1.007213a49.857049 49.857049 0 0 1-49.857049 49.857049h-84.438033v50.864262a49.857049 49.857049 0 0 1-49.857049 49.857049h-168.876066a49.857049 49.857049 0 0 1-49.857049-49.857049zM418.748852 800.23082v-1.007213a49.857049 49.857049 0 0 0-49.857049-49.85705h-84.438033v-50.864262a49.857049 49.857049 0 0 0-49.857049-49.857049h-152.08918a49.857049 49.857049 0 0 0-49.857049 49.857049v1.007213a49.857049 49.857049 0 0 0 49.857049 49.857049h101.224918v50.864263a49.857049 49.857049 0 0 0 49.857049 49.857049h135.302295a49.857049 49.857049 0 0 0 49.857049-49.857049z" fill="#FFFFFF" p-id="1562"></path><path d="M183.732459 782.940328c-5.187148 0-10.172852-2.400525-13.412721-6.68118a439.379934 439.379934 0 0 1-12.472656-17.458361 16.854033 16.854033 0 0 1-0.956852-17.290492c2.920918-5.489311 8.628459-8.913836 14.839606-8.913836h12.002623a16.786885 16.786885 0 0 1 16.786885 16.786885v16.786886a16.753311 16.753311 0 0 1-16.786885 16.770098zM245.877508 218.59882l-22.779803-24.659935a440.924328 440.924328 0 0 1 32.734426-27.446557l20.295344 26.724721c-10.491803 7.990557-20.681443 16.535082-30.249967 25.381771z" fill="#000000" p-id="1563"></path><path d="M956.432787 329.694426h-41.782557c-71.68-153.247475-225.431082-251.803279-395.180066-251.803278a435.68682 435.68682 0 0 0-226.84118 63.504786l17.475147 28.655214a402.21377 402.21377 0 0 1 209.366033-58.58623 403.019541 403.019541 0 0 1 358.081049 218.229508h-56.420721a66.727869 66.727869 0 0 0-66.643935 66.643935v34.077377h-101.224918c-36.729705 0-66.643934 29.897443-66.643934 67.651147a66.727869 66.727869 0 0 0 66.643934 66.643935H822.137705a66.727869 66.727869 0 0 0 66.643934-66.643935v-34.077377h30.40105c2.115148 16.837246 3.172721 33.724852 3.172721 50.360656 0 222.140852-180.744393 402.885246-402.885246 402.885246-69.279475 0-135.839475-17.273705-195.265049-50.360656h44.686688c36.729705 0 66.643934-29.897443 66.643935-67.651147a66.727869 66.727869 0 0 0-66.643935-66.643935h-67.651147v-34.077377a66.727869 66.727869 0 0 0-66.643935-66.643934H134.110426a402.767738 402.767738 0 0 1 80.157377-380.525115l-25.415344-21.940459A436.408656 436.408656 0 0 0 82.994361 514.350164c0 39.852066 5.741115 79.217311 16.467934 117.508197H82.490754c-36.729705 0-66.643934 29.897443-66.643934 67.651147a66.727869 66.727869 0 0 0 66.643934 66.643935h84.438033v34.077377a66.727869 66.727869 0 0 0 66.643934 66.643934h28.856656a432.430164 432.430164 0 0 0 257.024 83.934426c240.673574 0 436.459016-195.785443 436.459016-436.459016 0-16.65259-1.326164-33.52341-3.273442-50.360656h3.793836c36.729705 0 66.643934-29.897443 66.643934-67.651147a66.727869 66.727869 0 0 0-66.643934-66.643935z m-755.913443 470.536394v-50.864263a16.786885 16.786885 0 0 0-16.786885-16.786885h-101.224918c-18.230557 0-33.070164-14.839607-33.070164-34.077377 0-18.230557 14.839607-33.070164 33.070164-33.070164h152.105967c18.230557 0 33.070164 14.839607 33.070164 33.070164v50.864262a16.786885 16.786885 0 0 0 16.786885 16.786886h84.438033c18.230557 0 33.070164 14.839607 33.070164 34.077377 0 18.230557-14.839607 33.070164-33.070164 33.070164h-135.302295a33.120525 33.120525 0 0 1-33.086951-33.070164z m755.913443-369.815082h-84.45482a16.786885 16.786885 0 0 0-16.786885 16.786885v50.864262c0 18.230557-14.839607 33.070164-33.070164 33.070164H653.244852c-18.230557 0-33.070164-14.839607-33.070163-34.077377 0-18.230557 14.839607-33.070164 33.070163-33.070164h118.011804a16.786885 16.786885 0 0 0 16.786885-16.786885v-50.864262c0-18.230557 14.839607-33.070164 33.070164-33.070164h135.302295c18.230557 0 33.070164 14.839607 33.070164 34.077377a33.086951 33.086951 0 0 1-33.053377 33.070164zM989.502951 195.399344h33.57377v33.573771h-33.57377zM368.388197 10.743607h33.57377v33.57377h-33.57377zM15.863607 296.120656h33.57377v33.57377h-33.57377zM737.699672 984.382951h33.573771v33.57377h-33.573771zM217.30623 917.23541h33.57377v33.57377h-33.57377z" fill="#000000" p-id="1564"></path></svg>